<svg id="Layer_1" data-name="Layer 1" xmlns="http://www.w3.org/2000/svg" viewBox="0 0 312.61 64.26"><defs><style>.cls-1{fill:#231f20;}</style></defs><title>Artboard 3</title><path class="cls-1" d="M87.26,15.24A1.79,1.79,0,0,0,85.48,17V53.69a37.56,37.56,0,0,1-8.43.94c-6.31,0-8.6-2.35-8.6-9.24V17a1.72,1.72,0,0,0-1.71-1.8H57.09V45.46c0,14.18,7.49,18.8,19.62,18.8a79.8,79.8,0,0,0,20.09-3v-46ZM234.65,63.71a1.8,1.8,0,0,0,1.78-1.8v-37a37.55,37.55,0,0,1,8.42-1c6.32,0,8.6,2.35,8.6,9.25V61.91a1.72,1.72,0,0,0,1.71,1.8h9.66V33.16c0-14.18-7.49-18.79-19.62-18.79a80.51,80.51,0,0,0-20.09,3V63.71ZM196.16,14.43c-12.49,0-20.37,6.77-20.37,21.26V43c0,16.06,8.53,21.27,17.76,21.27A15.56,15.56,0,0,0,204.31,59v3A1.76,1.76,0,0,0,206,63.7h9.62V17.2a79,79,0,0,0-19.48-2.77m8.15,37.51c-2.09,1.75-3.71,2.89-8.15,3-6.33,0-9-3.86-9-12.12V36.14c0-9.51,3.5-12.12,9-12.12a42.49,42.49,0,0,1,8.15.58Zm88.82-37.51c-12.5,0-20.38,6.77-20.38,21.26V43c0,16.06,8.53,21.27,17.77,21.27A15.56,15.56,0,0,0,301.28,59v3A1.75,1.75,0,0,0,303,63.7h9.63V17.2a79,79,0,0,0-19.48-2.77m8.15,37.51c-2.09,1.75-3.72,2.89-8.15,3-6.34,0-9.06-3.86-9.06-12.12V36.14c0-9.51,3.5-12.12,9.06-12.12a42.59,42.59,0,0,1,8.15.58ZM0,63.7H10.17A1.81,1.81,0,0,0,11.88,62V35.16H30.64a5.36,5.36,0,0,1,5.43,5.14V62a1.74,1.74,0,0,0,1.69,1.72H47.93V0H37.76a1.72,1.72,0,0,0-1.69,1.6V25.53H16.55A4.66,4.66,0,0,1,11.88,21V1.6A1.75,1.75,0,0,0,10.17,0H0ZM150.55,14.39a24.46,24.46,0,0,0-12.77,3.7c-3.48-2.62-8.23-3.7-14.1-3.7a51.58,51.58,0,0,0-17.4,3.18V63.72h9.62a1.75,1.75,0,0,0,1.71-1.81V24.83a20.71,20.71,0,0,1,5.57-.84c6.64,0,8.26,2.67,8.26,9.25V61.91a1.8,1.8,0,0,0,1.72,1.81h7.92a1.7,1.7,0,0,0,1.72-1.81V26.26A10.28,10.28,0,0,1,149.43,24c5.13,0,7.21,2.31,7.21,8.6V61.91a1.78,1.78,0,0,0,1.71,1.81h9.59V31c0-12.39-7.73-16.65-17.39-16.65"/></svg>